<svg height="479pt" viewBox="0 0 479.97587 479" width="479pt" xmlns="http://www.w3.org/2000/svg"><path fill="#FF6F61" d="m478.984375 244.113281c.152344-.257812.292969-.527343.414063-.800781.769531-1.820312.769531-3.871094 0-5.6875-.121094-.277344-.257813-.542969-.414063-.800781-.289063-.578125-.648437-1.113281-1.070313-1.601563-.222656-.242187-.453124-.476562-.699218-.695312-.488282-.410156-1.027344-.765625-1.597656-1.054688-.28125-.164062-.574219-.308594-.875-.433594-.121094-.070312-.246094-.136718-.375-.191406l-137.078126-43.632812 37.792969-73.078125c.054688-.113281.046875-.234375.101563-.34375.101562-.207031.1875-.417969.265625-.632813.117187-.402344.207031-.808594.261719-1.222656.097656-.386719.167968-.777344.210937-1.167969 0-.210937 0-.402343 0-.609375-.042969-.394531-.113281-.785156-.210937-1.167968-.054688-.414063-.144532-.824219-.261719-1.222657-.078125-.21875-.164063-.429687-.265625-.632812-.054688-.113281-.046875-.234375-.101563-.34375-.160156-.21875-.332031-.429688-.515625-.632813-.210937-.371094-.457031-.726562-.734375-1.054687-.089843-.089844-.113281-.210938-.199219-.296875-.089843-.089844-.207031-.121094-.304687-.199219-.316406-.269531-.65625-.511719-1.015625-.722656-.210938-.191407-.433594-.371094-.664062-.535157-.113282-.054687-.242188-.046874-.359376-.09375-.199218-.101562-.40625-.1875-.617187-.265624-.40625-.125-.820313-.214844-1.238281-.265626-.378906-.09375-.761719-.160156-1.144532-.199218-.207031 0-.402343 0-.617187 0-.40625.046875-.808594.117187-1.207031.214844-.394532.054687-.785156.136718-1.167969.25-.226563.078124-.425781.167968-.632813.265624-.207031.09375-.246093.046876-.359374.101563l-73.082032 37.792969-43.621094-137.089844c-.058593-.125-.125-.253906-.195312-.375-.125-.304688-.277344-.601562-.445312-.886719-.28125-.550781-.628907-1.066406-1.03125-1.535156-.226563-.253906-.46875-.496094-.722657-.722656-.484375-.417969-1.023437-.769531-1.597656-1.054688-.257813-.160156-.523437-.300781-.800781-.425781-1.816406-.765625-3.863282-.765625-5.679688 0-.277344.125-.542968.265625-.800781.425781-.574219.285157-1.113281.636719-1.601563 1.054688-.253906.226562-.492187.46875-.71875.722656-.402343.46875-.75.984375-1.03125 1.535156-.171874.285157-.320312.582031-.449218.886719-.070313.121094-.132813.25-.191406.375l-43.609376 137.082031-73.078124-37.792969c-.113282-.054687-.242188-.046874-.359376-.09375-.199218-.101562-.40625-.1875-.617187-.265624-.792969-.1875-1.59375-.339844-2.398437-.464844-.210938 0-.402344 0-.617188 0-.804688.128906-1.605469.285156-2.398438.464844-.21875.078124-.425781.167968-.632812.265624-.207031.09375-.25.046876-.359375.101563-.238281.167969-.46875.355469-.679687.550781-.351563.207032-.683594.4375-.992188.699219-.097656.085937-.226562.117187-.3125.207031-.089844.085938-.113281.207032-.199219.296875-.277343.332031-.527343.683594-.746093 1.054688-.179688.203125-.347657.414062-.503907.632812-.054687.109375-.046875.230469-.105469.34375-.097656.207031-.1875.417969-.261718.632813-.121094.398437-.210938.808594-.265625 1.222656-.09375.382812-.164063.773438-.207031 1.167969v.609375c.042968.390625.113281.78125.207031 1.167968.054687.414063.144531.824219.265625 1.222657.074218.214843.164062.425781.261718.632812.058594.109375.050782.230469.105469.34375l37.792969 73.078125-137.050781 43.617188c-.128907.054687-.253907.121094-.375.191406-.300781.125-.589844.269531-.871094.433594-.558594.289062-1.082031.644531-1.558594 1.054687-.25.21875-.488281.453125-.707031.703125-.421875.484375-.785156 1.023438-1.070312 1.601563-.15625.257812-.292969.523437-.417969.800781-.765625 1.816406-.765625 3.863281 0 5.679688.125.273437.261719.542968.417969.800781.285156.578125.648437 1.113281 1.070312 1.597656.21875.25.457031.488281.707031.703125.476563.414062 1 .769531 1.558594 1.058594.277344.160156.566406.304687.863281.429687.136719.058594.25.152344.382813.195313l137.113281 43.621094-37.792969 73.082031c-.054687.109375-.046875.230469-.101562.34375-.101563.203125-.1875.414062-.265625.632812-.121094.398438-.207032.808594-.261719 1.222657-.097656.382812-.167969.773437-.210937 1.167968v.609375c.042968.390625.113281.78125.210937 1.167969.054687.414062.140625.820312.261719 1.222656.078125.214844.164062.425782.265625.632813.054687.109375.046875.230469.101562.34375.207031.347656.445313.679687.707031.992187.128907.203125.269532.402344.421876.589844.089843.113281.175781.234375.273437.335938l.046875.066406c.074219.070312.160156.085937.230469.152344.484375.453124 1.023437.851562 1.601562 1.175781.054688 0 .097657.09375.160157.125.0625.035156.3125.105469.464843.167969.152344.066406.351563.136718.527344.203124h.070313c.203124.070313.394531.167969.601562.222657.644531.179687 1.308594.28125 1.976562.296875.675782-.007813 1.347657-.101563 2-.273438.207032-.054687.398438-.152344.609376-.222656h.0625c.175781-.066406.351562-.121094.527343-.199219.175781-.082031.3125-.097656.464844-.167969l73.078125-37.792968 43.632812 137.054687c.058594.128907.121094.253907.191407.375.132812.308594.28125.605469.449219.890625.28125.550782.628906 1.066406 1.03125 1.535156.222656.253907.464843.496094.71875.71875.488281.417969 1.027343.773438 1.601562 1.058594.257812.160156.523438.300782.800781.421875 1.816407.769531 3.863281.769531 5.679688 0 .277343-.121093.542969-.261719.800781-.421875.574219-.285156 1.113281-.640625 1.597656-1.058594.257813-.222656.496094-.464843.722656-.71875.402344-.46875.75-.984374 1.03125-1.535156.167969-.285156.316407-.582031.449219-.890625.070313-.121093.132813-.246093.191407-.375l43.621093-137.101562 73.082031 37.789062c.152344.074219.3125.105469.464844.167969.152344.066406.351563.136719.527344.203125h.070312c.203126.070313.394532.167969.601563.222656.648437.1875 1.316406.296875 1.992187.320313.675782-.007813 1.347657-.101563 2-.273438.207032-.054687.398438-.152344.609376-.222656h.0625c.175781-.066406.351562-.121094.527343-.199219.175781-.082031.3125-.097656.464844-.167969.152344-.074218.101563-.097656.160156-.128906.578125-.324218 1.117188-.71875 1.597657-1.175781.074218-.066406.160156-.082031.234374-.152344l.046876-.066406c.097656-.101563.183593-.222656.273437-.335937.152344-.1875.292969-.382813.421875-.589844.261719-.3125.5-.644532.707031-.992188.054688-.113281.046875-.230468.101563-.34375.101562-.207031.1875-.417968.265625-.632812.117187-.398438.207031-.808594.261719-1.222656.097656-.386719.167968-.773438.210937-1.167969 0-.207031 0-.402344 0-.609375-.042969-.394532-.113281-.785156-.210937-1.167969-.054688-.414063-.144532-.824219-.261719-1.222656-.078125-.214844-.164063-.425781-.265625-.632813-.054688-.113281-.046875-.230468-.101563-.34375l-37.792969-73.082031 137.085938-43.644531c.136719-.042969.25-.136719.386719-.195313.292969-.125.578125-.265625.855469-.429687.570312-.289063 1.109374-.644532 1.597656-1.058594.246094-.21875.476562-.449219.699218-.695312.421876-.484376.78125-1.023438 1.070313-1.597657zm-180.800781 43.246094-38.894532-38.894531h161.160157zm-238.679688-38.894531h161.160156l-38.894531 38.894531zm122.265625-54.898438 38.894531 38.898438h-161.160156zm105.109375-11.316406-38.902344 38.902344v-161.160156zm-54.902344 38.902344-38.90625-38.902344 38.90625-122.257812zm-38.90625 77.527344 38.90625-38.902344v161.160156zm54.90625-38.902344 38.902344 38.902344-38.902344 122.257812zm11.3125-27.3125 38.894532-38.898438 122.265625 38.898438zm51.640626-51.640625 26.277343-26.28125-15.382812 29.753906zm14.957031-37.601563-26.269531 26.273438-3.472657-10.894532zm-145.550781 26.289063-26.273438-26.273438 29.746094 15.378907zm-37.601563-14.96875 26.28125 26.28125-10.894531 3.472656zm26.28125 145.5625-26.273437 26.277343 15.386718-29.75zm-14.960937 37.597656 26.273437-26.269531 3.472656 10.894531zm145.554687-26.269531 26.269531 26.269531-29.742187-15.375zm37.597656 14.964844-26.277343-26.277344 10.894531-3.472656zm0 0"/></svg>